<svg width="152" height="27" viewBox="0 0 152 27" fill="none" xmlns="http://www.w3.org/2000/svg">
<path d="M15.784 14.084V18.188H10.42V14.768C10.42 13.952 10.18 13.352 9.7 12.968C9.22 12.584 8.62 12.392 7.9 12.392C7.372 12.392 6.892 12.476 6.46 12.644C6.052 12.788 5.704 12.944 5.416 13.112V18.188H0.0880001V12.572C0.0880001 11.972 0.208 11.48 0.448 11.096C0.712 10.688 1.084 10.328 1.564 10.016C2.356 9.464 3.328 9.02 4.48 8.684C5.632 8.348 6.832 8.18 8.08 8.18C9.232 8.18 10.312 8.36 11.32 8.72C12.328 9.08 13.204 9.632 13.948 10.376C14.14 10.52 14.32 10.676 14.488 10.844C14.68 10.988 14.824 11.156 14.92 11.348C15.16 11.732 15.364 12.164 15.532 12.644C15.7 13.124 15.784 13.604 15.784 14.084ZM26.116 14.624V18.188H20.788V14.768C20.788 13.952 20.56 13.352 20.104 12.968C19.648 12.584 19.048 12.392 18.304 12.392C17.752 12.392 17.224 12.512 16.72 12.752C16.24 12.968 15.82 13.232 15.46 13.544L12.652 10.448C13.444 9.824 14.344 9.296 15.352 8.864C16.36 8.408 17.596 8.18 19.06 8.18C20.308 8.18 21.472 8.396 22.552 8.828C23.632 9.26 24.496 9.944 25.144 10.88C25.792 11.816 26.116 13.064 26.116 14.624ZM0.0880001 16.532H5.416V25.964C5.176 26.036 4.84 26.096 4.408 26.144C3.976 26.216 3.508 26.252 3.004 26.252C1.996 26.252 1.252 26.072 0.772 25.712C0.316 25.352 0.0880001 24.704 0.0880001 23.768V16.532ZM10.42 16.532H15.784V25.964C15.544 26.036 15.208 26.096 14.776 26.144C14.344 26.216 13.876 26.252 13.372 26.252C12.34 26.252 11.584 26.072 11.104 25.712C10.648 25.352 10.42 24.704 10.42 23.768V16.532ZM20.788 16.532H26.116V25.964C25.9 26.036 25.576 26.096 25.144 26.144C24.712 26.216 24.244 26.252 23.74 26.252C22.708 26.252 21.952 26.072 21.472 25.712C21.016 25.352 20.788 24.704 20.788 23.768V16.532ZM37.4144 22.58C37.9664 22.58 38.5064 22.532 39.0344 22.436C39.5864 22.316 39.9824 22.184 40.2224 22.04V18.584L37.1984 18.872C36.3824 18.92 35.7344 19.088 35.2544 19.376C34.7744 19.664 34.5344 20.096 34.5344 20.672C34.5344 21.248 34.7624 21.716 35.2184 22.076C35.6744 22.412 36.4064 22.58 37.4144 22.58ZM37.1984 8.18C39.6944 8.18 41.6864 8.708 43.1744 9.764C44.6624 10.796 45.4064 12.404 45.4064 14.588V22.76C45.4064 23.36 45.2504 23.852 44.9384 24.236C44.6264 24.596 44.2304 24.908 43.7504 25.172C43.0304 25.604 42.1304 25.94 41.0504 26.18C39.9944 26.444 38.7824 26.576 37.4144 26.576C34.9664 26.576 33.0104 26.096 31.5464 25.136C30.1064 24.176 29.3864 22.748 29.3864 20.852C29.3864 19.22 29.8904 17.972 30.8984 17.108C31.9064 16.22 33.4064 15.68 35.3984 15.488L40.1864 14.984V14.552C40.1864 13.736 39.8624 13.148 39.2144 12.788C38.5904 12.428 37.6904 12.248 36.5144 12.248C35.6024 12.248 34.7024 12.356 33.8144 12.572C32.9504 12.788 32.1704 13.04 31.4744 13.328C31.1864 13.136 30.9344 12.848 30.7184 12.464C30.5264 12.056 30.4304 11.636 30.4304 11.204C30.4304 10.196 30.9824 9.464 32.0864 9.008C32.7824 8.72 33.5864 8.516 34.4984 8.396C35.4344 8.252 36.3344 8.18 37.1984 8.18ZM60.7137 21.716V10.88H66.0417V22.4C66.0417 22.976 65.9217 23.468 65.6817 23.876C65.4417 24.26 65.0577 24.608 64.5297 24.92C63.8817 25.352 63.0297 25.724 61.9737 26.036C60.9417 26.372 59.7417 26.54 58.3737 26.54C56.3817 26.54 54.6537 26.204 53.1897 25.532C51.7497 24.86 50.6337 23.852 49.8417 22.508C49.0737 21.14 48.6897 19.448 48.6897 17.432C48.6897 15.32 49.0857 13.592 49.8777 12.248C50.6937 10.88 51.7857 9.86 53.1537 9.188C54.5217 8.516 56.0337 8.18 57.6897 8.18C58.5537 8.18 59.3217 8.276 59.9937 8.468C60.6657 8.66 61.2177 8.888 61.6497 9.152V13.544C61.3137 13.256 60.8697 12.992 60.3177 12.752C59.7657 12.512 59.1297 12.392 58.4097 12.392C57.5697 12.392 56.8257 12.572 56.1777 12.932C55.5297 13.292 55.0257 13.844 54.6657 14.588C54.3057 15.332 54.1257 16.28 54.1257 17.432C54.1257 19.112 54.4977 20.348 55.2417 21.14C56.0097 21.932 57.0417 22.328 58.3377 22.328C58.8657 22.328 59.3337 22.268 59.7417 22.148C60.1497 22.004 60.4737 21.86 60.7137 21.716ZM66.0417 11.924L60.7137 11.96V2.564C60.9297 2.492 61.2537 2.42 61.6857 2.348C62.1177 2.276 62.5857 2.24 63.0897 2.24C64.1457 2.24 64.9017 2.42 65.3577 2.78C65.8137 3.14 66.0417 3.8 66.0417 4.76V11.924ZM72.779 19.88L72.563 16.28L81.491 14.876C81.443 14.204 81.155 13.58 80.627 13.004C80.099 12.428 79.319 12.14 78.287 12.14C77.207 12.14 76.307 12.512 75.587 13.256C74.867 13.976 74.483 15.008 74.435 16.352L74.615 18.836C74.831 20.156 75.395 21.104 76.307 21.68C77.219 22.232 78.299 22.508 79.547 22.508C80.555 22.508 81.503 22.364 82.391 22.076C83.279 21.788 83.999 21.488 84.551 21.176C84.911 21.392 85.199 21.692 85.415 22.076C85.655 22.46 85.775 22.868 85.775 23.3C85.775 24.02 85.487 24.62 84.911 25.1C84.359 25.58 83.579 25.94 82.571 26.18C81.587 26.42 80.459 26.54 79.187 26.54C77.339 26.54 75.671 26.192 74.183 25.496C72.719 24.8 71.567 23.756 70.727 22.364C69.887 20.972 69.467 19.232 69.467 17.144C69.467 15.608 69.707 14.276 70.187 13.148C70.691 12.02 71.351 11.096 72.167 10.376C73.007 9.632 73.943 9.08 74.975 8.72C76.031 8.36 77.123 8.18 78.251 8.18C79.907 8.18 81.347 8.516 82.571 9.188C83.819 9.836 84.791 10.724 85.487 11.852C86.183 12.98 86.531 14.288 86.531 15.776C86.531 16.52 86.327 17.084 85.919 17.468C85.511 17.852 84.947 18.092 84.227 18.188L72.779 19.88ZM103.202 8.36C103.946 8.36 104.558 8.528 105.038 8.864C105.542 9.176 105.794 9.716 105.794 10.484C105.794 10.916 105.674 11.588 105.434 12.5C105.194 13.412 104.87 14.468 104.462 15.668C104.078 16.868 103.646 18.092 103.166 19.34C102.686 20.588 102.206 21.764 101.726 22.868C101.246 23.948 100.814 24.848 100.43 25.568C100.166 25.76 99.7461 25.928 99.1701 26.072C98.5941 26.24 97.9581 26.324 97.2621 26.324C96.4461 26.324 95.7381 26.216 95.1381 26C94.5621 25.784 94.1541 25.448 93.9141 24.992C93.6501 24.488 93.3261 23.78 92.9421 22.868C92.5581 21.956 92.1501 20.924 91.7181 19.772C91.2861 18.596 90.8541 17.384 90.4221 16.136C89.9901 14.888 89.5941 13.688 89.2341 12.536C88.8741 11.384 88.5861 10.376 88.3701 9.512C88.6821 9.2 89.0781 8.936 89.5581 8.72C90.0621 8.48 90.6021 8.36 91.1781 8.36C91.9221 8.36 92.5341 8.516 93.0141 8.828C93.4941 9.14 93.8421 9.728 94.0581 10.592L95.6781 16.316C95.8701 16.988 96.0621 17.66 96.2541 18.332C96.4701 19.004 96.6621 19.628 96.8301 20.204C96.9981 20.78 97.1421 21.272 97.2621 21.68H97.4061C97.9821 19.736 98.5581 17.66 99.1341 15.452C99.7341 13.22 100.262 11.048 100.718 8.936C101.438 8.552 102.266 8.36 103.202 8.36ZM108.681 3.752C108.681 2.936 108.957 2.252 109.509 1.7C110.085 1.148 110.805 0.872 111.669 0.872C112.557 0.872 113.277 1.148 113.829 1.7C114.381 2.252 114.657 2.936 114.657 3.752C114.657 4.544 114.381 5.228 113.829 5.804C113.277 6.38 112.557 6.668 111.669 6.668C110.805 6.668 110.085 6.38 109.509 5.804C108.957 5.228 108.681 4.544 108.681 3.752ZM109.005 16.496H114.333V25.964C114.117 26.036 113.793 26.096 113.361 26.144C112.929 26.216 112.461 26.252 111.957 26.252C110.925 26.252 110.169 26.072 109.689 25.712C109.233 25.352 109.005 24.704 109.005 23.768V16.496ZM114.333 19.268H109.005V8.936C109.221 8.864 109.545 8.792 109.977 8.72C110.433 8.648 110.913 8.612 111.417 8.612C112.449 8.612 113.193 8.792 113.649 9.152C114.105 9.488 114.333 10.148 114.333 11.132V19.268ZM121.118 26H118.994C118.658 25.712 118.394 25.364 118.202 24.956C118.01 24.548 117.914 24.104 117.914 23.624C117.914 23.192 118.01 22.772 118.202 22.364C118.418 21.932 118.67 21.536 118.958 21.176L129.398 8.756H131.27C131.606 9.044 131.87 9.392 132.062 9.8C132.278 10.184 132.386 10.628 132.386 11.132C132.386 11.564 132.278 11.984 132.062 12.392C131.87 12.8 131.618 13.196 131.306 13.58L121.118 26ZM130.19 8.756V12.896H118.598C118.478 12.656 118.358 12.356 118.238 11.996C118.118 11.612 118.058 11.228 118.058 10.844C118.058 10.1 118.226 9.572 118.562 9.26C118.898 8.924 119.342 8.756 119.894 8.756H130.19ZM120.47 26V21.86H132.206C132.35 22.052 132.47 22.34 132.566 22.724C132.686 23.084 132.746 23.48 132.746 23.912C132.746 24.632 132.578 25.16 132.242 25.496C131.93 25.832 131.498 26 130.946 26H120.47ZM137.994 19.88L137.778 16.28L146.706 14.876C146.658 14.204 146.37 13.58 145.842 13.004C145.314 12.428 144.534 12.14 143.502 12.14C142.422 12.14 141.522 12.512 140.802 13.256C140.082 13.976 139.698 15.008 139.65 16.352L139.83 18.836C140.046 20.156 140.61 21.104 141.522 21.68C142.434 22.232 143.514 22.508 144.762 22.508C145.77 22.508 146.718 22.364 147.606 22.076C148.494 21.788 149.214 21.488 149.766 21.176C150.126 21.392 150.414 21.692 150.63 22.076C150.87 22.46 150.99 22.868 150.99 23.3C150.99 24.02 150.702 24.62 150.126 25.1C149.574 25.58 148.794 25.94 147.786 26.18C146.802 26.42 145.674 26.54 144.402 26.54C142.554 26.54 140.886 26.192 139.398 25.496C137.934 24.8 136.782 23.756 135.942 22.364C135.102 20.972 134.682 19.232 134.682 17.144C134.682 15.608 134.922 14.276 135.402 13.148C135.906 12.02 136.566 11.096 137.382 10.376C138.222 9.632 139.158 9.08 140.19 8.72C141.246 8.36 142.338 8.18 143.466 8.18C145.122 8.18 146.562 8.516 147.786 9.188C149.034 9.836 150.006 10.724 150.702 11.852C151.398 12.98 151.746 14.288 151.746 15.776C151.746 16.52 151.542 17.084 151.134 17.468C150.726 17.852 150.162 18.092 149.442 18.188L137.994 19.88Z" fill="white"/>
</svg>
